<?xml version="1.0" encoding="utf-8"?>
<!-- Generator: Adobe Illustrator 15.0.0, SVG Export Plug-In . SVG Version: 6.00 Build 0)  -->
<!DOCTYPE svg PUBLIC "-//W3C//DTD SVG 1.1//EN" "http://www.w3.org/Graphics/SVG/1.1/DTD/svg11.dtd">
<svg version="1.1" id="Capa_1" xmlns="http://www.w3.org/2000/svg" xmlns:xlink="http://www.w3.org/1999/xlink" x="0px" y="0px"
	 width="792px" height="792px" viewBox="0 0 792 792" enable-background="new 0 0 792 792" xml:space="preserve">
<g>
	<path fill="#D2D8D8" d="M15.678,19c0,0,2.501,0,2.501-1.637V2.637C18.179,1,15.678,1,15.678,1H4.421c0,0-2.502,0-2.502,1.636
		v14.727C1.919,19,4.421,19,4.421,19H15.678z M10.049,18.319c-0.69,0-1.251-0.365-1.251-0.816s0.561-0.817,1.251-0.817
		s1.251,0.366,1.251,0.817S10.74,18.319,10.049,18.319z M6.922,1.998c0-0.102,0.124-0.181,0.276-0.181h5.7
		c0.152,0,0.277,0.081,0.277,0.181v0.048c0,0.102-0.124,0.18-0.276,0.18H7.198c-0.151,0-0.276-0.081-0.276-0.18V1.998z M3.17,3.043
		h13.758v13.071H3.17V3.043z"/>
</g>
</svg>
